<svg width="81" height="81" viewBox="0 0 81 81" fill="none" xmlns="http://www.w3.org/2000/svg">
<g clip-path="url(#clip0_33_579)">
<path d="M40.5 0.092041C18.4431 0.092041 0.5 18.0352 0.5 40.092C0.5 62.1489 18.4431 80.092 40.5 80.092C62.5569 80.092 80.5 62.1489 80.5 40.092C80.5 18.0352 62.5569 0.092041 40.5 0.092041Z" fill="#F67952" fill-opacity="0.1"/>
<path d="M60.7731 31.6155L39.1063 53.2817C38.4562 53.9318 37.603 54.2589 36.7497 54.2589C35.8964 54.2589 35.0432 53.9318 34.3931 53.2817L23.56 42.4486C22.2563 41.1455 22.2563 39.0386 23.56 37.7355C24.8631 36.4318 26.9694 36.4318 28.2731 37.7355L36.7497 46.212L56.06 26.9023C57.3631 25.5986 59.4694 25.5986 60.7731 26.9023C62.0762 28.2054 62.0762 30.3118 60.7731 31.6155Z" fill="#F67952"/>
</g>
<defs>
<clipPath id="clip0_33_579">
<rect width="80" height="80" fill="white" transform="translate(0.5 0.092041)"/>
</clipPath>
</defs>
</svg>
