<svg width="209" height="210" viewBox="0 0 209 210" fill="none" xmlns="http://www.w3.org/2000/svg">
<path d="M104.501 8.22388C117.222 8.22388 129.818 10.7294 141.571 15.5975C153.323 20.4656 164.002 27.6009 172.997 36.5959C181.992 45.591 189.128 56.2696 193.996 68.0222C198.864 79.7748 201.369 92.3712 201.369 105.092C201.369 117.813 198.864 130.409 193.996 142.162C189.127 153.915 181.992 164.593 172.997 173.588C164.002 182.583 153.323 189.719 141.571 194.587C129.818 199.455 117.222 201.96 104.501 201.96C91.7801 201.96 79.1837 199.455 67.4311 194.587C55.6785 189.719 44.9999 182.583 36.0048 173.588C27.0098 164.593 19.8745 153.915 15.0064 142.162C10.1384 130.409 7.63281 117.813 7.63281 105.092C7.63282 92.3711 10.1384 79.7748 15.0065 68.0222C19.8746 56.2696 27.0098 45.5909 36.0049 36.5959C44.9999 27.6008 55.6786 20.4656 67.4312 15.5975C79.1838 10.7294 91.7802 8.22387 104.501 8.22388L104.501 8.22388Z" stroke="#F67952" stroke-width="15" stroke-miterlimit="2.61313" stroke-linecap="round"/>
</svg>
