<svg width="24" height="25" viewBox="0 0 24 25" fill="none" xmlns="http://www.w3.org/2000/svg">
<path fill-rule="evenodd" clip-rule="evenodd" d="M16.9303 7.5C16.9621 7.42913 16.977 7.35189 16.9739 7.27432H17C16.8882 4.60591 14.6849 2.5 12.0049 2.5C9.325 2.5 7.12172 4.60591 7.00989 7.27432C6.9967 7.34898 6.9967 7.42535 7.00989 7.5H6.93171C5.65022 7.5 4.28034 8.34597 3.88264 10.6201L3.1049 16.8147C2.46858 21.3629 4.81062 22.5 7.86853 22.5H16.1585C19.2075 22.5 21.4789 20.8535 20.9133 16.8147L20.1444 10.6201C19.676 8.40964 18.3503 7.5 17.0865 7.5H16.9303ZM15.4932 7.5C15.4654 7.42794 15.4506 7.35153 15.4497 7.27432C15.4497 5.35682 13.8899 3.80238 11.9657 3.80238C10.0416 3.80238 8.48184 5.35682 8.48184 7.27432C8.49502 7.34898 8.49502 7.42535 8.48184 7.5H15.4932ZM9.09702 12.6486C8.60891 12.6486 8.21323 12.2413 8.21323 11.7389C8.21323 11.2365 8.60891 10.8293 9.09702 10.8293C9.58512 10.8293 9.98081 11.2365 9.98081 11.7389C9.98081 12.2413 9.58512 12.6486 9.09702 12.6486ZM14.002 11.7389C14.002 12.2413 14.3977 12.6486 14.8858 12.6486C15.3739 12.6486 15.7696 12.2413 15.7696 11.7389C15.7696 11.2365 15.3739 10.8293 14.8858 10.8293C14.3977 10.8293 14.002 11.2365 14.002 11.7389Z" fill="#F67952"/>
</svg>
