<svg width="24" height="25" viewBox="0 0 24 25" fill="none" xmlns="http://www.w3.org/2000/svg">
<path opacity="0.4" d="M21.9999 16.4402C21.9999 19.2302 19.7599 21.4902 16.9699 21.5002H16.9599H7.0499C4.2699 21.5002 1.9999 19.2502 1.9999 16.4602V16.4502C1.9999 16.4502 2.0059 12.0242 2.0139 9.79818C2.0149 9.38018 2.4949 9.14618 2.8219 9.40618C5.1979 11.2912 9.4469 14.7282 9.4999 14.7732C10.2099 15.3422 11.1099 15.6632 12.0299 15.6632C12.9499 15.6632 13.8499 15.3422 14.5599 14.7622C14.6129 14.7272 18.7669 11.3932 21.1789 9.47718C21.5069 9.21618 21.9889 9.45018 21.9899 9.86718C21.9999 12.0762 21.9999 16.4402 21.9999 16.4402Z" fill="#F67952"/>
<path d="M21.476 6.17357C20.61 4.54157 18.906 3.49957 17.03 3.49957H7.05C5.174 3.49957 3.47 4.54157 2.604 6.17357C2.41 6.53857 2.502 6.99357 2.825 7.25157L10.25 13.1906C10.77 13.6106 11.4 13.8196 12.03 13.8196C12.034 13.8196 12.037 13.8196 12.04 13.8196C12.043 13.8196 12.047 13.8196 12.05 13.8196C12.68 13.8196 13.31 13.6106 13.83 13.1906L21.255 7.25157C21.578 6.99357 21.67 6.53857 21.476 6.17357Z" fill="#F67952"/>
</svg>
