<svg width="33" height="32" viewBox="0 0 33 32" fill="none" xmlns="http://www.w3.org/2000/svg">
<path d="M16.4956 0.0155029C7.71462 0.0155029 0.596069 7.13405 0.596069 15.915C0.596069 23.7905 6.32816 30.3128 13.8439 31.5758V19.2321H10.0084V14.7901H13.8439V11.5148C13.8439 7.71443 16.165 5.64347 19.5557 5.64347C21.1796 5.64347 22.5751 5.76447 22.9803 5.81777V9.79014L20.6286 9.79127C18.785 9.79127 18.4296 10.6672 18.4296 11.9529V14.7878H22.8285L22.2548 19.2298H18.4296V31.682C26.2962 30.7245 32.3949 24.0361 32.3949 15.9105C32.3949 7.13405 25.2764 0.0155029 16.4956 0.0155029Z" fill="#076FE5"/>
</svg>
