<svg width="32" height="32" viewBox="0 0 32 32" fill="none" xmlns="http://www.w3.org/2000/svg">
<g clip-path="url(#clip0_33_1443)">
<path d="M30.3579 13.1538L17.7133 13.1532C17.1549 13.1532 16.7023 13.6057 16.7023 14.1641V18.2035C16.7023 18.7617 17.1549 19.2144 17.7132 19.2144H24.8339C24.0542 21.2379 22.5989 22.9325 20.7422 24.0093L23.7784 29.2653C28.6489 26.4485 31.5284 21.5061 31.5284 15.9735C31.5284 15.1857 31.4703 14.6225 31.3542 13.9884C31.2659 13.5067 30.8477 13.1538 30.3579 13.1538Z" fill="#167EE6"/>
<path d="M16.028 25.2833C12.5433 25.2833 9.5012 23.3794 7.86734 20.562L2.61151 23.5914C5.28617 28.2269 10.2967 31.3486 16.028 31.3486C18.8396 31.3486 21.4926 30.5915 23.778 29.2723V29.2651L20.7418 24.009C19.353 24.8145 17.7458 25.2833 16.028 25.2833Z" fill="#12B347"/>
<path d="M23.7782 29.2725V29.2653L20.742 24.0092C19.3531 24.8147 17.7461 25.2835 16.0282 25.2835V31.3488C18.8398 31.3488 21.4929 30.5917 23.7782 29.2725Z" fill="#0F993E"/>
<path d="M6.59342 15.8486C6.59342 14.1309 7.06217 12.5239 7.86751 11.1352L2.61168 8.10577C1.28516 10.384 0.528198 13.0297 0.528198 15.8486C0.528198 18.6674 1.28516 21.3132 2.61168 23.5914L7.86751 20.5619C7.06217 19.1732 6.59342 17.5662 6.59342 15.8486Z" fill="#FFD500"/>
<path d="M16.028 6.41398C18.3004 6.41398 20.3877 7.22143 22.0181 8.56454C22.4203 8.89585 23.0049 8.87194 23.3733 8.50351L26.2353 5.64146C26.6533 5.22344 26.6236 4.5392 26.177 4.15183C23.4454 1.78208 19.8913 0.348755 16.028 0.348755C10.2967 0.348755 5.28617 3.47037 2.61151 8.10596L7.86734 11.1354C9.5012 8.31794 12.5433 6.41398 16.028 6.41398Z" fill="#FF4B26"/>
<path d="M22.0182 8.56454C22.4204 8.89585 23.0051 8.87194 23.3735 8.50351L26.2355 5.64146C26.6535 5.22344 26.6237 4.5392 26.1772 4.15182C23.4456 1.78202 19.8915 0.348755 16.0282 0.348755V6.41398C18.3005 6.41398 20.3879 7.22143 22.0182 8.56454Z" fill="#D93F21"/>
</g>
<defs>
<clipPath id="clip0_33_1443">
<rect width="31" height="31" fill="white" transform="translate(0.528198 0.348755)"/>
</clipPath>
</defs>
</svg>
