<svg width="24" height="25" viewBox="0 0 24 25" fill="none" xmlns="http://www.w3.org/2000/svg">
<path fill-rule="evenodd" clip-rule="evenodd" d="M7.7688 9.21381H16.2312C18.5886 9.21381 20.5 11.083 20.5 13.3885V18.3253C20.5 20.6308 18.5886 22.5 16.2312 22.5H7.7688C5.41136 22.5 3.5 20.6308 3.5 18.3253V13.3885C3.5 11.083 5.41136 9.21381 7.7688 9.21381ZM11.9949 17.8294C12.4928 17.8294 12.8891 17.4419 12.8891 16.955V14.7489C12.8891 14.2719 12.4928 13.8843 11.9949 13.8843C11.5072 13.8843 11.1109 14.2719 11.1109 14.7489V16.955C11.1109 17.4419 11.5072 17.8294 11.9949 17.8294Z" fill="#F67952"/>
<path opacity="0.4" d="M17.5228 7.89595V9.36667C17.1672 9.2673 16.7912 9.21761 16.4051 9.21761H15.7446V7.89595C15.7446 5.87868 14.0679 4.23903 12.0052 4.23903C9.94242 4.23903 8.26579 5.86874 8.25563 7.87608V9.21761H7.6053C7.20901 9.21761 6.83304 9.2673 6.47739 9.37661V7.89595C6.48755 4.91476 8.95676 2.5 11.9849 2.5C15.0536 2.5 17.5228 4.91476 17.5228 7.89595Z" fill="#F67952"/>
</svg>
