<svg width="26" height="26" viewBox="0 0 26 26" fill="none" xmlns="http://www.w3.org/2000/svg">
<g opacity="0.3">
<path fill-rule="evenodd" clip-rule="evenodd" d="M19.9026 9.68574C19.9026 10.985 20.2442 11.7509 20.9959 12.6334C21.5656 13.2835 21.7477 14.1181 21.7477 15.0236C21.7477 15.928 21.4521 16.7865 20.8599 17.4836C20.0847 18.3192 18.9913 18.8527 17.8755 18.9454C16.2585 19.084 14.6405 19.2007 13.001 19.2007C11.3605 19.2007 9.74349 19.1309 8.1265 18.9454C7.00964 18.8527 5.91631 18.3192 5.14208 17.4836C4.5499 16.7865 4.2533 15.928 4.2533 15.0236C4.2533 14.1181 4.43637 13.2835 5.00503 12.6334C5.78028 11.7509 6.09938 10.985 6.09938 9.68574V9.245C6.09938 7.50497 6.53099 6.36717 7.41977 5.25334C8.74118 3.62896 10.8593 2.65475 12.955 2.65475H13.047C15.1877 2.65475 17.3743 3.67585 18.6732 5.37004C19.516 6.46095 19.9026 7.55081 19.9026 9.245V9.68574ZM9.98955 21.339C9.98955 20.8181 10.4651 20.5795 10.9049 20.4774C11.4194 20.368 14.5541 20.368 15.0686 20.4774C15.5084 20.5795 15.984 20.8181 15.984 21.339C15.9584 21.835 15.669 22.2747 15.2691 22.5539C14.7505 22.9603 14.142 23.2177 13.5058 23.3104C13.154 23.3562 12.8083 23.3573 12.4687 23.3104C11.8315 23.2177 11.223 22.9603 10.7055 22.5529C10.3046 22.2747 10.0151 21.835 9.98955 21.339Z" fill="#1C1A19"/>
</g>
</svg>
