<svg width="18" height="19" viewBox="0 0 18 19" fill="none" xmlns="http://www.w3.org/2000/svg">
<path fill-rule="evenodd" clip-rule="evenodd" d="M13.3267 6.78635H16.5C16.5 4.23844 14.9733 2.75 12.3867 2.75H5.61333C3.02667 2.75 1.5 4.23844 1.5 6.75385V12.2461C1.5 14.7616 3.02667 16.25 5.61333 16.25H12.3867C14.9733 16.25 16.5 14.7616 16.5 12.2461V12.0122H13.3267C11.8539 12.0122 10.66 10.8481 10.66 9.41225C10.66 7.97637 11.8539 6.81235 13.3267 6.81235V6.78635ZM13.3267 7.9043H15.94C16.2493 7.9043 16.5 8.14875 16.5 8.45028V10.3482C16.4964 10.6483 16.2478 10.8907 15.94 10.8942H13.3867C12.6411 10.904 11.9891 10.4063 11.82 9.69824C11.7353 9.25871 11.8542 8.80517 12.1448 8.45916C12.4354 8.11314 12.868 7.91005 13.3267 7.9043ZM13.44 9.89972H13.6867C14.0033 9.89972 14.26 9.64946 14.26 9.34075C14.26 9.03203 14.0033 8.78177 13.6867 8.78177H13.44C13.2886 8.78003 13.1427 8.83747 13.035 8.94127C12.9273 9.04507 12.8667 9.18659 12.8667 9.33425C12.8667 9.64403 13.1223 9.89616 13.44 9.89972ZM5.05332 6.78634H9.28665C9.6033 6.78634 9.85999 6.53608 9.85999 6.22736C9.85999 5.91864 9.6033 5.66838 9.28665 5.66838H5.05332C4.73926 5.66836 4.48364 5.91469 4.47999 6.22086C4.47997 6.53064 4.7356 6.78278 5.05332 6.78634Z" fill="#F67952"/>
</svg>
